<?xml version="1.0" encoding="UTF-8"?>
<svg version="1.1" viewBox="0 0 30.67 29.085" xmlns="http://www.w3.org/2000/svg"><title>AgnosUI</title><defs><linearGradient id="linearGradient6" x1="67.883" x2="69.69" y1="11" y2="118.94" gradientTransform="matrix(.26458 0 0 .26458 94.985 132.82)" gradientUnits="userSpaceOnUse"><stop stop-color="#00f" offset="0"/><stop stop-color="#00a8ff" offset="1"/></linearGradient></defs><g transform="translate(-97.631 -135.47)"><path d="m113.73 162.01c-5.4689-0.0159-10.811 0.39687-15.679 2.2331-0.14993 0.0564-0.1905 0.0124-0.12171-0.13229l13.481-28.279c0.0292-0.0598 0.0887-0.0978 0.15345-0.0979h2.7676c0.0821-6e-5 0.15736 0.0484 0.19314 0.12435l13.507 28.31c0.0359 0.0704-0.0357 0.14728-0.10848 0.11641-4.3947-1.6854-9.5171-2.2595-14.192-2.2754zm-5.5146-6.6966c1.3229-0.26458 7.9375-0.26458 9.2604 0l-4.4575-10.911c-0.0353-0.0847-0.15522-0.0847-0.1905 0z" fill="url(#linearGradient6)" stroke="#1066ef" stroke-width=".52917"/></g></svg>
