<?xml version="1.0" encoding="UTF-8"?>
<!-- Generator: Adobe Illustrator 16.0.0, SVG Export Plug-In . SVG Version: 6.00 Build 0)  -->
<svg width="191.25" height="191.22" enable-background="new 0 0 595.28 841.89" version="1.1" viewBox="0 0 191.25 191.22" xml:space="preserve" xmlns="http://www.w3.org/2000/svg">

<path d="m136.68 88.889 27.935 0.687c-1.118-12.791-5.735-24.55-12.874-34.393-31.886-5.798-60.51-0.785-60.51-0.785l2.277-27.81c-14.131 0.438-27.185 5.093-37.955 12.78-6.017 31.858-1.188 60.522-1.188 60.522l-27.817-2.476c0.319 12.909 4.16 24.915 10.61 35.139 31.456 7.829 60.355 4.656 60.355 4.656l-4.059 27.608c0.75 0.028 1.482 0.118 2.236 0.118 16.56 0 31.753-5.833 43.661-15.529 3.988-32.193-2.671-60.517-2.671-60.517z" fill="#9240CC"/>
<path d="m151.74 55.183c11.332 2.063 23.061 5.451 34.073 10.964-21.637-59.963-90.122-66.147-90.122-66.147l-2.184 26.588c0.736-0.024 1.447-0.111 2.184-0.111 23.08 1e-3 43.474 11.34 56.049 28.706z" fill="#FCE649"/>
<path d="m151.74 55.183c-12.575-17.367-32.969-28.706-56.049-28.706-0.736 0-1.447 0.086-2.184 0.111l-2.277 27.81c0 1e-3 28.624-5.012 60.51 0.785z" fill="#E9CF1C"/>
<path d="m164.62 89.576c0.181 2.021 0.313 4.063 0.313 6.132 0 21.675-9.972 41.006-25.574 53.7-1.402 11.412-4.125 23.286-8.985 34.58 58.62-25.029 60.877-93.756 60.877-93.756z" fill="#FCE649"/>
<path d="m164.93 95.708c0-2.069-0.132-4.111-0.313-6.132l-27.935-0.687s6.658 28.324 2.673 60.519c15.604-12.694 25.575-32.025 25.575-53.7z" fill="#E9CF1C"/>
<path d="m37.163 132.56c-11.173-2.781-22.651-6.916-33.289-13.12 17.755 61.231 85.708 71.785 85.708 71.785l3.877-26.4c-23.736-0.758-44.415-13.43-56.296-32.265z" fill="#FCE649"/>
<path d="m37.163 132.56c11.881 18.835 32.56 31.507 56.296 32.264l4.059-27.608s-28.899 3.173-60.355-4.656z" fill="#E9CF1C"/>
<path d="m55.557 39.369c2.139-11.308 5.604-23.008 11.187-33.987-60.099 21.231-66.744 89.68-66.744 89.68l26.553 2.354c-0.014-0.573-0.083-1.132-0.083-1.708 0-23.255 11.502-43.781 29.087-56.339z" fill="#FCE649"/>
<path d="m55.557 39.369c-17.585 12.558-29.088 33.084-29.088 56.339 0 0.576 0.07 1.135 0.083 1.708l27.817 2.476c1e-3 -1e-3 -4.828-28.665 1.188-60.523z" fill="#E9CF1C"/>
</svg>
